<?xml version="1.0" encoding="utf-8"?>
<!-- Generator: Adobe Illustrator 21.0.0, SVG Export Plug-In . SVG Version: 6.00 Build 0)  -->
<svg version="1.1" id="Layer_1" xmlns="http://www.w3.org/2000/svg" xmlns:xlink="http://www.w3.org/1999/xlink" x="0px" y="0px"
	 viewBox="0 0 46 46" style="enable-background:new 0 0 46 46;" xml:space="preserve">
<title>Asset 5</title>
<g>
	<path d="M14.1,19.9l2.5,1.6c1.4,0.9,2.5,1.6,3.2,2.1c0.2,0.1,0.3,0.2,0.5,0.3c0.2,0.1,0.5,0.3,0.7,0.4c0.2,0.1,0.4,0.2,0.6,0.4
		c0.2,0.1,0.5,0.2,0.7,0.3c0.2,0.1,0.4,0.1,0.6,0.1c0.2,0,0.4,0,0.6-0.1c0.2-0.1,0.5-0.2,0.7-0.3c0.2-0.1,0.4-0.2,0.6-0.4
		c0.2-0.2,0.5-0.3,0.7-0.4c0.3-0.2,0.4-0.3,0.5-0.3c0.8-0.5,2.7-1.7,5.7-3.7c0.6-0.4,1.1-0.9,1.5-1.4c0.4-0.5,0.6-1.1,0.6-1.7
		c0-0.5-0.2-1-0.6-1.3c-0.4-0.4-0.9-0.6-1.4-0.5H14c-0.6,0-1.1,0.2-1.5,0.6c-0.7,0.9-0.7,2.3,0.2,3.1C13.1,19.2,13.6,19.6,14.1,19.9
		z M32.8,21.1c-2.7,1.7-4.7,3-6.1,3.9c-0.3,0.3-0.7,0.5-1.1,0.7c-0.4,0.2-0.8,0.4-1.2,0.5c-0.4,0.2-0.9,0.3-1.4,0.3
		c-0.5,0-1-0.1-1.4-0.3c-0.5-0.2-0.9-0.4-1.2-0.5s-0.7-0.4-1.1-0.7c-1.1-0.7-3.1-2.1-6.1-3.9c-0.5-0.3-0.9-0.6-1.2-1v9
		c0,0.5,0.2,1,0.6,1.3c0.4,0.4,0.9,0.6,1.4,0.5h18c0.5,0,1-0.2,1.4-0.5c0.4-0.3,0.6-0.8,0.6-1.3v-9C33.7,20.5,33.2,20.8,32.8,21.1z"
		/>
</g>
</svg>
