<?xml version="1.0" encoding="utf-8"?>
<!-- Generator: Adobe Illustrator 21.0.0, SVG Export Plug-In . SVG Version: 6.00 Build 0)  -->
<svg version="1.1" id="Layer_1" xmlns="http://www.w3.org/2000/svg" xmlns:xlink="http://www.w3.org/1999/xlink" x="0px" y="0px"
	 viewBox="0 0 46 46" style="enable-background:new 0 0 46 46;" xml:space="preserve">
<title>Asset 4</title>
<g>
	<path d="M11,23.3c0,5.2,3.3,9.9,8.2,11.7c0.3,0.1,0.7-0.1,0.8-0.4c0-0.1,0-0.1,0-0.2v-2.1c-3.3,0.7-4-1.6-4-1.6
		c-0.2-0.7-0.7-1.4-1.3-1.8c-1.1-0.8,0.1-0.7,0.1-0.7c0.8,0.1,1.4,0.6,1.8,1.3c0.6,1.2,2.2,1.7,3.4,1.1c0,0,0.1,0,0.1-0.1
		c0-0.6,0.3-1.2,0.8-1.6c-2.7-0.3-5.5-1.4-5.5-6.1c0-1.2,0.4-2.4,1.2-3.3c-0.3-1.1-0.3-2.2,0.1-3.3c0,0,1-0.3,3.3,1.3
		c1-0.3,2-0.4,3-0.4c1,0,2,0.1,3,0.4c2.3-1.6,3.3-1.3,3.3-1.3c0.4,1,0.5,2.2,0.1,3.3c0.8,0.9,1.2,2.1,1.2,3.3c0,4.7-2.8,5.8-5.5,6.1
		c0.6,0.6,0.9,1.5,0.8,2.3v3.4c0,0.3,0.3,0.6,0.6,0.6c0.1,0,0.1,0,0.2,0c5-1.7,8.3-6.4,8.2-11.7c0.1-6.7-5.3-12.2-12-12.3
		C16.4,11,11,16.5,11,23.3z"/>
</g>
</svg>
