<?xml version="1.0" encoding="utf-8"?>
<!-- Generator: Adobe Illustrator 21.0.0, SVG Export Plug-In . SVG Version: 6.00 Build 0)  -->
<svg version="1.1" id="Layer_1" xmlns="http://www.w3.org/2000/svg" xmlns:xlink="http://www.w3.org/1999/xlink" x="0px" y="0px"
	 viewBox="0 0 46 46" style="enable-background:new 0 0 46 46;" xml:space="preserve">
<title>Asset 3</title>
<g>
	<path d="M13.5,19.4h3.9V33h-3.9V19.4z M15.4,17.7c-1.3,0.1-2.3-0.9-2.4-2.2c0-0.1,0-0.1,0-0.2c-0.1-1.3,0.9-2.3,2.2-2.4
		c0.1,0,0.1,0,0.2,0c1.3,0,2.4,1.1,2.4,2.4S16.7,17.7,15.4,17.7z M33,33h-4.4v-7c0-1.8-0.7-3.1-2.2-3.1c-1,0-1.9,0.7-2.1,1.7
		c-0.1,0.4-0.1,0.7-0.1,1.1V33h-4.4c0,0,0.1-12.5,0-13.6h4.4v2.1c0.7-1.5,2.3-2.4,3.9-2.3c2.8,0,4.9,2,4.9,6.2V33z"/>
</g>
</svg>
