<?xml version="1.0" encoding="UTF-8" standalone="no"?>
<!DOCTYPE svg PUBLIC "-//W3C//DTD SVG 1.1//EN" "http://www.w3.org/Graphics/SVG/1.1/DTD/svg11.dtd">
<svg width="100%" height="100%" viewBox="0 0 720 405" version="1.1" xmlns="http://www.w3.org/2000/svg" xmlns:xlink="http://www.w3.org/1999/xlink" xml:space="preserve" xmlns:serif="http://www.serif.com/" style="fill-rule:evenodd;clip-rule:evenodd;stroke-linejoin:round;stroke-miterlimit:8;">
    <g transform="matrix(0.998884,0,0,1,0.803657,2.592e-05)">
        <rect x="0" y="0" width="720" height="405" style="fill:white;"/>
    </g>
    <g transform="matrix(0,0.0019685,-0.0019685,0,519.488,29.3006)">
        <path d="M81608,140744L163040,140744" style="fill:none;fill-rule:nonzero;stroke:rgb(36,36,36);stroke-width:381px;"/>
    </g>
    <g transform="matrix(1,0,0,1,1.63802,33.1751)">
        <rect x="246.421" y="171.366" width="66.945" height="22.134" style="fill-opacity:0;"/>
    </g>
    <g transform="matrix(1,0,0,1,1.63802,222.776)">
        <rect x="246.368" y="76.566" width="104.905" height="22.134" style="fill-opacity:0;"/>
    </g>
    <g transform="matrix(1,0,0,1,1.63802,-216.923)">
        <rect x="80.746" y="288.49" width="108.024" height="37.984" style="fill-opacity:0;"/>
    </g>
    <g transform="matrix(0.0019685,0,0,-0.0019685,1.63802,297.918)">
        <path d="M57818,77438.8L99866,77438.8" style="fill:none;fill-rule:nonzero;stroke:rgb(36,36,36);stroke-width:381px;"/>
    </g>
    <g transform="matrix(0,-0.0019685,0.0019685,0,-37.3422,178.679)">
        <path d="M29259,57053L45243,57053" style="fill:none;fill-rule:nonzero;stroke:rgb(36,36,36);stroke-width:381px;"/>
    </g>
    <g transform="matrix(1,0,0,1,1.63802,-108.454)">
        <rect x="38.025" y="238.673" width="70.606" height="29.15" style="fill-opacity:0;"/>
    </g>
    <g transform="matrix(1,0,0,1,1.63802,-107.339)">
        <rect x="205.492" y="238.116" width="70.606" height="29.15" style="fill-opacity:0;"/>
    </g>
    <g transform="matrix(1,0,0,1,1.63802,102.584)">
        <rect x="246.546" y="128.737" width="108.024" height="37.984" style="fill-opacity:0;"/>
    </g>
    <g transform="matrix(1,0,0,1,1.63802,297.95)">
        <rect x="246.274" y="38.979" width="78.425" height="22.134" style="fill-opacity:0;"/>
    </g>
    <g transform="matrix(1,0,0,1,1.63802,-107.082)">
        <rect x="363.968" y="237.987" width="78.425" height="29.15" style="fill-opacity:0;"/>
    </g>
    <g transform="matrix(0.00127269,0.999999,0.999999,-0.00127269,96.3739,-306.214)">
        <path d="M372.129,304.699L427.759,304.699" style="fill:none;stroke:rgb(36,36,36);stroke-width:0.75px;"/>
    </g>
    <g transform="matrix(1,0,0,1,1.63802,164.497)">
        <rect x="246.617" y="105.705" width="66.945" height="22.134" style="fill-opacity:0;"/>
    </g>
    <g transform="matrix(1,0,0,1,1.63802,-265.633)">
        <rect x="406.684" y="312.845" width="108.024" height="37.984" style="fill-opacity:0;"/>
    </g>
    <g transform="matrix(1,0,0,1,1.63802,-205.121)">
        <rect x="406.684" y="290.514" width="74.173" height="22.134" style="fill-opacity:0;"/>
    </g>
    <g transform="matrix(1,0,0,1,1.63802,-103.615)">
        <rect x="537.541" y="236.253" width="70.606" height="29.15" style="fill-opacity:0;"/>
    </g>
    <g transform="matrix(1,0,0,1,1.63802,49.8775)">
        <rect x="578.406" y="155.09" width="108.024" height="37.984" style="fill-opacity:0;"/>
    </g>
    <g transform="matrix(1,0,0,1,1.63802,88.9015)">
        <rect x="577.166" y="143.503" width="66.945" height="22.134" style="fill-opacity:0;"/>
    </g>
    <g transform="matrix(1,0,0,1,1.63802,290.502)">
        <rect x="577.113" y="42.703" width="104.905" height="22.134" style="fill-opacity:0;"/>
    </g>
    <g transform="matrix(1,0,0,1,1.63802,171.667)">
        <rect x="577.291" y="94.195" width="108.024" height="37.984" style="fill-opacity:0;"/>
    </g>
    <g transform="matrix(1,0,0,1,1.63802,362.963)">
        <rect x="577.592" y="6.472" width="78.425" height="22.134" style="fill-opacity:0;"/>
    </g>
    <g transform="matrix(1,0,0,1,1.63802,232.435)">
        <rect x="577.257" y="71.736" width="66.945" height="22.134" style="fill-opacity:0;"/>
    </g>
    <g transform="matrix(0.0019685,0,0,-0.0019685,1.63802,297.658)">
        <path d="M141217,77372.8L183265,77372.8" style="fill:none;fill-rule:nonzero;stroke:rgb(36,36,36);stroke-width:381px;"/>
    </g>
    <g transform="matrix(0.0019685,0,0,-0.0019685,1.63802,297.851)">
        <path d="M227975,77421.6L270023,77421.6" style="fill:none;fill-rule:nonzero;stroke:rgb(36,36,36);stroke-width:381px;"/>
    </g>
    <g transform="matrix(1,0,0,1,1.63802,35.8918)">
        <path d="M238.245,181.075C238.245,182.464 239.371,183.591 240.761,183.591C241.428,183.591 242.068,183.325 242.54,182.854C243.011,182.382 243.277,181.742 243.277,181.075C243.277,179.685 242.15,178.559 240.761,178.559C239.371,178.559 238.245,179.685 238.245,181.075Z" style="fill:rgb(36,36,36);"/>
    </g>
    <g transform="matrix(1,0,0,1,1.63802,102.666)">
        <path d="M238.245,147.688C238.245,149.077 239.371,150.203 240.761,150.203C241.428,150.203 242.068,149.938 242.54,149.467C243.011,148.995 243.277,148.355 243.277,147.688C243.277,146.298 242.15,145.172 240.761,145.172C239.371,145.172 238.245,146.298 238.245,147.688Z" style="fill:rgb(36,36,36);"/>
    </g>
    <g transform="matrix(1,0,0,1,1.63802,168.915)">
        <path d="M238.245,114.563C238.245,115.952 239.371,117.079 240.761,117.079C241.428,117.079 242.068,116.814 242.54,116.342C243.011,115.87 243.277,115.23 243.277,114.563C243.277,113.174 242.15,112.047 240.761,112.047C239.371,112.047 238.245,113.174 238.245,114.563Z" style="fill:rgb(36,36,36);"/>
    </g>
    <g transform="matrix(1,0,0,1,1.63802,235.69)">
        <path d="M238.245,81.176C238.245,82.565 239.371,83.692 240.761,83.692C241.428,83.692 242.068,83.427 242.54,82.955C243.011,82.483 243.277,81.843 243.277,81.176C243.277,79.787 242.15,78.66 240.761,78.66C239.371,78.66 238.245,79.787 238.245,81.176Z" style="fill:rgb(36,36,36);"/>
    </g>
    <g transform="matrix(1,0,0,1,1.63802,302.465)">
        <path d="M238.245,47.788C238.245,49.178 239.371,50.304 240.761,50.304C241.428,50.304 242.068,50.039 242.54,49.567C243.011,49.095 243.277,48.455 243.277,47.788C243.277,46.399 242.15,45.272 240.761,45.272C239.371,45.272 238.245,46.399 238.245,47.788Z" style="fill:rgb(36,36,36);"/>
    </g>
    <g transform="matrix(-0.000121158,1,1,0.000121158,464.919,-285.532)">
        <path d="M475.992,110.174L670.779,110.174" style="fill:none;stroke:rgb(36,36,36);stroke-width:0.75px;"/>
    </g>
    <g transform="matrix(1,0,0,1,1.63802,36.9562)">
        <path d="M570.858,180.543C570.858,181.932 571.984,183.058 573.374,183.058C574.041,183.058 574.681,182.793 575.153,182.322C575.624,181.85 575.89,181.21 575.89,180.543C575.89,179.153 574.763,178.027 573.374,178.027C571.984,178.027 570.858,179.153 570.858,180.543Z" style="fill:rgb(36,36,36);"/>
    </g>
    <g transform="matrix(1,0,0,1,1.63802,103.73)">
        <path d="M570.858,147.155C570.858,148.545 571.984,149.671 573.374,149.671C574.041,149.671 574.681,149.406 575.153,148.934C575.624,148.463 575.89,147.823 575.89,147.155C575.89,145.766 574.763,144.64 573.374,144.64C571.984,144.64 570.858,145.766 570.858,147.155Z" style="fill:rgb(36,36,36);"/>
    </g>
    <g transform="matrix(1,0,0,1,1.63802,169.98)">
        <path d="M570.858,114.031C570.858,115.42 571.984,116.547 573.374,116.547C574.041,116.547 574.681,116.282 575.153,115.81C575.624,115.338 575.89,114.698 575.89,114.031C575.89,112.641 574.763,111.515 573.374,111.515C571.984,111.515 570.858,112.641 570.858,114.031Z" style="fill:rgb(36,36,36);"/>
    </g>
    <g transform="matrix(1,0,0,1,1.63802,236.754)">
        <path d="M570.858,80.644C570.858,82.033 571.984,83.159 573.374,83.159C574.041,83.159 574.681,82.894 575.153,82.423C575.624,81.951 575.89,81.311 575.89,80.644C575.89,79.254 574.763,78.128 573.374,78.128C571.984,78.128 570.858,79.254 570.858,80.644Z" style="fill:rgb(36,36,36);"/>
    </g>
    <g transform="matrix(1,0,0,1,1.63802,303.53)">
        <path d="M570.858,47.256C570.858,48.645 571.984,49.772 573.374,49.772C574.041,49.772 574.681,49.507 575.153,49.035C575.624,48.563 575.89,47.923 575.89,47.256C575.89,45.866 574.763,44.74 573.374,44.74C571.984,44.74 570.858,45.866 570.858,47.256Z" style="fill:rgb(36,36,36);"/>
    </g>
    <g transform="matrix(1,0,0,1,1.63802,367.449)">
        <path d="M570.858,15.296C570.858,16.686 571.984,17.812 573.374,17.812C574.041,17.812 574.681,17.547 575.153,17.075C575.624,16.603 575.89,15.963 575.89,15.296C575.89,13.907 574.763,12.78 573.374,12.78C571.984,12.78 570.858,13.907 570.858,15.296Z" style="fill:rgb(36,36,36);"/>
    </g>
    <g transform="matrix(1,0,0,1,1.63802,-217.632)">
        <path d="M70.814,307.837C70.814,309.226 71.94,310.352 73.33,310.352C73.997,310.352 74.637,310.087 75.109,309.616C75.58,309.144 75.845,308.504 75.845,307.837C75.845,306.447 74.719,305.321 73.33,305.321C71.94,305.321 70.814,306.447 70.814,307.837Z" style="fill:rgb(36,36,36);"/>
    </g>
    <g transform="matrix(1,0,0,1,1.63802,-264.325)">
        <path d="M397.381,331.183C397.381,332.573 398.507,333.699 399.897,333.699C400.564,333.699 401.204,333.434 401.676,332.962C402.147,332.49 402.412,331.851 402.412,331.183C402.412,329.794 401.286,328.668 399.897,328.668C398.507,328.668 397.381,329.794 397.381,331.183Z" style="fill:rgb(36,36,36);"/>
    </g>
    <g transform="matrix(1,0,0,1,1.63802,-202.507)">
        <path d="M397.381,300.274C397.381,301.664 398.507,302.79 399.897,302.79C400.564,302.79 401.204,302.525 401.676,302.053C402.147,301.581 402.412,300.941 402.412,300.274C402.412,298.885 401.286,297.758 399.897,297.758C398.507,297.758 397.381,298.885 397.381,300.274Z" style="fill:rgb(36,36,36);"/>
    </g>
    <g transform="matrix(0.0019685,0,0,-0.0019685,1.63802,298.369)">
        <path d="M311364,77553.3L341460,77553.3" style="fill:none;fill-rule:nonzero;stroke:rgb(36,36,36);stroke-width:381px;"/>
    </g>
    <g transform="matrix(1,0,0,1,1.63802,-324.034)">
        <rect x="32.142" y="339.778" width="340.843" height="42.52" style="fill-opacity:0;"/>
    </g>
    <g transform="matrix(1,0,0,1,1.63802,-6.95869)">
        <text x="253.171px" y="226.89px" style="font-family:'LucidaGrande', 'Lucida Grande', sans-serif;font-weight:500;font-size:9px;fill:rgb(36,36,36);">t<tspan x="256.289px 261.01px 265.349px 270.361px 272.96px 277.681px 283.018px 287.74px 290.093px 294.546px 298.885px 301.238px " y="226.89px 226.89px 226.89px 226.89px 226.89px 226.89px 226.89px 226.89px 226.89px 226.89px 226.89px 226.89px ">ask analysis</tspan></text>
    </g>
    <g transform="matrix(1,0,0,1,1.63802,-6.95869)">
        <text x="253.118px" y="321.69px" style="font-family:'LucidaGrande', 'Lucida Grande', sans-serif;font-weight:500;font-size:9px;fill:rgb(36,36,36);">c<tspan x="257.488px 262.776px 268.148px 273.493px 275.855px 278.981px 281.343px 285.761px " y="321.69px 321.69px 321.69px 321.69px 321.69px 321.69px 321.69px 321.69px ">ognitive</tspan></text>
        <text x="253.118px" y="332.19px" style="font-family:'LucidaGrande', 'Lucida Grande', sans-serif;font-weight:500;font-size:9px;fill:rgb(36,36,36);">w<tspan x="259.826px 264.57px 266.945px 271.979px 275.119px 280.478px 283.934px 289.236px 294.595px 299.981px " y="332.19px 332.19px 332.19px 332.19px 332.19px 332.19px 332.19px 332.19px 332.19px 332.19px ">alkthrough</tspan></text>
    </g>
    <g transform="matrix(1,0,0,1,1.63802,-6.95869)">
        <text x="87.496px" y="93.916px" style="font-family:'LucidaGrande', 'Lucida Grande', sans-serif;font-weight:500;font-size:9px;fill:rgb(36,36,36);">a<tspan x="92.281px 96.706px 101.13px 105.959px 110.362px 114.764px 117.181px 122.66px 125.076px 127.493px 129.909px 133.09px " y="93.916px 93.916px 93.916px 93.916px 93.916px 93.916px 93.916px 93.916px 93.916px 93.916px 93.916px 93.916px ">ccessibility</tspan></text>
        <text x="87.496px" y="104.416px" style="font-family:'LucidaGrande', 'Lucida Grande', sans-serif;font-weight:500;font-size:9px;fill:rgb(36,36,36);">l<tspan x="89.867px 92.239px 95.375px 100.159px 103.611px 108.351px 111.487px 116.842px 120.295px " y="104.416px 104.416px 104.416px 104.416px 104.416px 104.416px 104.416px 104.416px 104.416px ">iterature</tspan></text>
        <text x="127.087px" y="104.416px" style="font-family:'LucidaGrande', 'Lucida Grande', sans-serif;font-weight:500;font-size:9px;fill:rgb(36,36,36);">r<tspan x="130.539px 135.323px 139.751px 142.123px 146.907px " y="104.416px 104.416px 104.416px 104.416px 104.416px ">eview</tspan></text>
    </g>
    <g transform="matrix(1,0,0,1,1.63802,-6.95869)">
        <text x="45.265px" y="154.487px" style="font-family:'LucidaGrande', 'Lucida Grande', sans-serif;font-weight:500;font-size:11px;fill:rgb(36,36,36);">I<tspan x="48.232px 54.986px 60.746px 67.499px 74.887px 81.64px 84.607px 92.95px " y="154.487px 154.487px 154.487px 154.487px 154.487px 154.487px 154.487px 154.487px ">TERATION</tspan></text>
        <text x="67.802px" y="174.707px" style="font-family:'LucidaGrande', 'Lucida Grande', sans-serif;font-weight:500;font-size:18px;fill:rgb(36,36,36);">0</text>
    </g>
    <g transform="matrix(1,0,0,1,1.63802,-6.95869)">
        <text x="212.732px" y="155.045px" style="font-family:'LucidaGrande', 'Lucida Grande', sans-serif;font-weight:500;font-size:11px;fill:rgb(36,36,36);">I<tspan x="215.699px 222.453px 228.213px 234.966px 242.354px 249.107px 252.074px 260.417px " y="155.045px 155.045px 155.045px 155.045px 155.045px 155.045px 155.045px 155.045px ">TERATION</tspan></text>
        <text x="236.349px" y="175.265px" style="font-family:'LucidaGrande', 'Lucida Grande', sans-serif;font-weight:500;font-size:18px;fill:rgb(36,36,36);">1</text>
    </g>
    <g transform="matrix(1,0,0,1,1.63802,-6.95869)">
        <text x="253.296px" y="253.669px" style="font-family:'LucidaGrande', 'Lucida Grande', sans-serif;font-weight:500;font-size:9px;fill:rgb(36,36,36);">s<tspan x="257.587px 262.303px 270.408px 272.712px 277.622px 281.912px 284.981px 288.366px 293.654px 297.966px 301.035px 306.323px 309.708px 314.424px " y="253.669px 253.669px 253.669px 253.669px 253.669px 253.669px 253.669px 253.669px 253.669px 253.669px 253.669px 253.669px 253.669px 253.669px ">emi-structured</tspan></text>
        <text x="253.296px" y="264.169px" style="font-family:'LucidaGrande', 'Lucida Grande', sans-serif;font-weight:500;font-size:9px;fill:rgb(36,36,36);">i<tspan x="255.699px 261.087px 264.255px 269.07px 272.555px 277.015px 279.418px 284.234px 290.97px " y="264.169px 264.169px 264.169px 264.169px 264.169px 264.169px 264.169px 264.169px 264.169px ">nterviews</tspan></text>
    </g>
    <g transform="matrix(1,0,0,1,1.63802,-6.95869)">
        <text x="253.024px" y="359.277px" style="font-family:'LucidaGrande', 'Lucida Grande', sans-serif;font-weight:500;font-size:9px;fill:rgb(36,36,36);">t<tspan x="256.169px 259.63px 264.423px 269.216px 271.842px 274.987px 279.779px 284.146px 287.291px 289.671px 295.035px " y="359.277px 359.277px 359.277px 359.277px 359.277px 359.277px 359.277px 359.277px 359.277px 359.277px 359.277px ">ree testing</tspan></text>
    </g>
    <g transform="matrix(1,0,0,1,1.63802,-6.95869)">
        <text x="371.782px" y="155.174px" style="font-family:'LucidaGrande', 'Lucida Grande', sans-serif;font-weight:500;font-size:11px;fill:rgb(36,36,36);">I<tspan x="374.812px 381.628px 387.451px 394.268px 401.718px 408.535px 411.565px 419.971px 427.959px " y="155.174px 155.174px 155.174px 155.174px 155.174px 155.174px 155.174px 155.174px 155.174px ">TERATIONS</tspan></text>
        <text x="383.116px" y="175.394px" style="font-family:'LucidaGrande', 'Lucida Grande', sans-serif;font-weight:500;font-size:18px;fill:rgb(36,36,36);">2</text>
        <text x="397.588px" y="175.394px" style="font-family:'LucidaGrande', 'Lucida Grande', sans-serif;font-weight:500;font-size:17px;fill:rgb(36,36,36);">&amp;<tspan x="408.965px 413.869px " y="175.394px 175.394px "> 3</tspan></text>
    </g>
    <g transform="matrix(1,0,0,1,1.63802,-6.95869)">
        <text x="253.367px" y="292.551px" style="font-family:'LucidaGrande', 'Lucida Grande', sans-serif;font-weight:500;font-size:9px;fill:rgb(36,36,36);">t<tspan x="256.424px 261.699px 263.991px 269.266px " y="292.551px 292.551px 292.551px 292.551px ">hink</tspan></text>
        <text x="275.903px" y="292.551px" style="font-family:'LucidaGrande', 'Lucida Grande', sans-serif;font-weight:500;font-size:9px;fill:rgb(36,36,36);">a<tspan x="280.564px 282.855px 288.074px 293.349px " y="292.551px 292.551px 292.551px 292.551px ">loud</tspan></text>
    </g>
    <g transform="matrix(1,0,0,1,1.63802,-6.95869)">
        <text x="413.434px" y="69.561px" style="font-family:'LucidaGrande', 'Lucida Grande', sans-serif;font-weight:500;font-size:9px;fill:rgb(36,36,36);">s<tspan x="417.724px 422.441px 430.545px 432.849px 437.759px 442.05px 445.118px 448.503px 453.791px 458.104px 461.172px 466.46px 469.845px 474.562px " y="69.561px 69.561px 69.561px 69.561px 69.561px 69.561px 69.561px 69.561px 69.561px 69.561px 69.561px 69.561px 69.561px 69.561px ">emi-structured</tspan></text>
        <text x="413.434px" y="80.061px" style="font-family:'LucidaGrande', 'Lucida Grande', sans-serif;font-weight:500;font-size:9px;fill:rgb(36,36,36);">i<tspan x="415.837px 421.224px 424.392px 429.208px 432.692px 437.152px 439.556px 444.371px 451.108px " y="80.061px 80.061px 80.061px 80.061px 80.061px 80.061px 80.061px 80.061px 80.061px ">nterviews</tspan></text>
        <text x="413.434px" y="107.741px" style="font-family:'LucidaGrande', 'Lucida Grande', sans-serif;font-weight:500;font-size:9px;fill:rgb(36,36,36);">t<tspan x="416.49px 421.765px 424.057px 429.333px " y="107.741px 107.741px 107.741px 107.741px ">hink</tspan></text>
        <text x="435.97px" y="107.741px" style="font-family:'LucidaGrande', 'Lucida Grande', sans-serif;font-weight:500;font-size:9px;fill:rgb(36,36,36);">a<tspan x="440.63px 442.922px 448.14px 453.415px " y="107.741px 107.741px 107.741px 107.741px ">loud</tspan></text>
    </g>
    <g transform="matrix(1,0,0,1,1.63802,-6.95869)">
        <text x="544.781px" y="156.907px" style="font-family:'LucidaGrande', 'Lucida Grande', sans-serif;font-weight:500;font-size:11px;fill:rgb(36,36,36);">I<tspan x="547.748px 554.501px 560.261px 567.015px 574.402px 581.156px 584.123px 592.466px " y="156.907px 156.907px 156.907px 156.907px 156.907px 156.907px 156.907px 156.907px ">TERATION</tspan></text>
        <text x="567.705px" y="177.127px" style="font-family:'LucidaGrande', 'Lucida Grande', sans-serif;font-weight:500;font-size:18px;fill:rgb(36,36,36);">4</text>
    </g>
    <g transform="matrix(1,0,0,1,1.63802,-6.95869)">
        <text x="585.156px" y="227.316px" style="font-family:'LucidaGrande', 'Lucida Grande', sans-serif;font-weight:500;font-size:9px;fill:rgb(36,36,36);">b<tspan x="590.611px 595.417px 600.793px 605.194px 610.571px 618.764px 623.526px 627px 632.051px 634.69px 637.847px 642.653px 647.032px 650.189px 652.582px 657.958px " y="227.316px 227.316px 227.316px 227.316px 227.316px 227.316px 227.316px 227.316px 227.316px 227.316px 227.316px 227.316px 227.316px 227.316px 227.316px 227.316px ">enchmark testing</tspan></text>
    </g>
    <g transform="matrix(1,0,0,1,1.63802,-6.95869)">
        <text x="583.916px" y="254.753px" style="font-family:'LucidaGrande', 'Lucida Grande', sans-serif;font-weight:500;font-size:9px;fill:rgb(36,36,36);">h<tspan x="589.163px 593.84px 599.087px 602.432px 604.695px 608.945px 611.973px 614.237px " y="254.753px 254.753px 254.753px 254.753px 254.753px 254.753px 254.753px 254.753px ">euristic</tspan></text>
        <text x="583.916px" y="265.253px" style="font-family:'LucidaGrande', 'Lucida Grande', sans-serif;font-weight:500;font-size:9px;fill:rgb(36,36,36);">a<tspan x="588.659px 594.018px 598.761px 601.136px 605.611px 609.972px 612.347px " y="265.253px 265.253px 265.253px 265.253px 265.253px 265.253px 265.253px ">nalysis</tspan></text>
    </g>
    <g transform="matrix(1,0,0,1,1.63802,-6.95869)">
        <text x="583.863px" y="355.554px" style="font-family:'LucidaGrande', 'Lucida Grande', sans-serif;font-weight:500;font-size:9px;fill:rgb(36,36,36);">c<tspan x="588.232px 593.521px 598.893px 604.238px 606.6px 609.726px 612.087px 616.506px " y="355.554px 355.554px 355.554px 355.554px 355.554px 355.554px 355.554px 355.554px ">ognitive</tspan></text>
        <text x="583.863px" y="366.054px" style="font-family:'LucidaGrande', 'Lucida Grande', sans-serif;font-weight:500;font-size:9px;fill:rgb(36,36,36);">w<tspan x="590.571px 595.315px 597.69px 602.724px 605.864px 611.223px 614.679px 619.981px 625.34px 630.726px " y="366.054px 366.054px 366.054px 366.054px 366.054px 366.054px 366.054px 366.054px 366.054px 366.054px ">alkthrough</tspan></text>
    </g>
    <g transform="matrix(1,0,0,1,1.63802,-6.95869)">
        <text x="584.041px" y="288.211px" style="font-family:'LucidaGrande', 'Lucida Grande', sans-serif;font-weight:500;font-size:9px;fill:rgb(36,36,36);">s<tspan x="588.331px 593.048px 601.153px 603.457px 608.367px 612.657px 615.726px 619.111px 624.399px 628.711px 631.779px 637.067px 640.452px 645.169px " y="288.211px 288.211px 288.211px 288.211px 288.211px 288.211px 288.211px 288.211px 288.211px 288.211px 288.211px 288.211px 288.211px 288.211px ">emi-structured</tspan></text>
        <text x="584.041px" y="298.711px" style="font-family:'LucidaGrande', 'Lucida Grande', sans-serif;font-weight:500;font-size:9px;fill:rgb(36,36,36);">i<tspan x="586.444px 591.831px 594.999px 599.815px 603.3px 607.76px 610.163px 614.979px 621.715px " y="298.711px 298.711px 298.711px 298.711px 298.711px 298.711px 298.711px 298.711px 298.711px ">nterviews</tspan></text>
    </g>
    <g transform="matrix(1,0,0,1,1.63802,-6.95869)">
        <text x="584.342px" y="391.784px" style="font-family:'LucidaGrande', 'Lucida Grande', sans-serif;font-weight:500;font-size:9px;fill:rgb(36,36,36);">e<tspan x="589.03px 592.385px 595.741px 600.943px 604.299px 606.819px 609.859px 613.215px 617.858px 622.141px 627.075px 629.349px 634.608px " y="391.784px 391.784px 391.784px 391.784px 391.784px 391.784px 391.784px 391.784px 391.784px 391.784px 391.784px 391.784px 391.784px ">rror tracking</tspan></text>
    </g>
    <g transform="matrix(1,0,0,1,1.63802,-6.95869)">
        <text x="584.007px" y="326.52px" style="font-family:'LucidaGrande', 'Lucida Grande', sans-serif;font-weight:500;font-size:9px;fill:rgb(36,36,36);">t<tspan x="587.063px 592.338px 594.63px 599.905px " y="326.52px 326.52px 326.52px 326.52px ">hink</tspan></text>
        <text x="606.542px" y="326.52px" style="font-family:'LucidaGrande', 'Lucida Grande', sans-serif;font-weight:500;font-size:9px;fill:rgb(36,36,36);">a<tspan x="611.203px 613.494px 618.713px 623.988px " y="326.52px 326.52px 326.52px 326.52px ">loud</tspan></text>
    </g>
    <g transform="matrix(1,0,0,1,1.63802,-6.95869)">
        <text x="38.892px" y="58.253px" style="font-family:'LucidaGrande', 'Lucida Grande', sans-serif;font-weight:500;font-size:30px;fill:rgb(36,36,36);">Re<tspan x="74.405px 89.613px 106.241px 122.723px 134.913px 150.194px 168.727px 178.134px 194.631px 206.821px 225.164px 240.445px 257.073px " y="58.253px 58.253px 58.253px 58.253px 58.253px 58.253px 58.253px 58.253px 58.253px 58.253px 58.253px 58.253px 58.253px ">search Proces</tspan>s</text>
    </g>
</svg>
