<?xml version="1.0" encoding="utf-8"?>
<!-- Generator: Adobe Illustrator 21.0.0, SVG Export Plug-In . SVG Version: 6.00 Build 0)  -->
<svg version="1.1" id="Layer_1" xmlns="http://www.w3.org/2000/svg" xmlns:xlink="http://www.w3.org/1999/xlink" x="0px" y="0px"
	 viewBox="0 0 2556.7 3600" style="enable-background:new 0 0 2556.7 3600;" xml:space="preserve">
<style type="text/css">
	.st0{fill:#FFFFFF;}
	.st1{fill:#1B68AB;}
	.st2{enable-background:new    ;}
	.st3{fill:#F2E818;}
	.st4{fill:#C21817;}
</style>
<title>splash-mobile</title>
<desc>Created with Sketch.</desc>
<g id="splash-mobile">
	<rect x="450.3" class="st0" width="1662.6" height="3600"/>
	<g id="mobile" transform="translate(-634.000000, 0.000000)">
		<rect id="UX-box" x="634" y="0.3" class="st1" width="1087.4" height="1603.9"/>
		<g id="UX" transform="translate(924.000000, 1593.000000)">
			<rect id="Rectangle-path" x="744.3" y="-438.3" class="st0" width="53.1" height="55.9"/>
			<rect id="Rectangle-path_1_" x="692.4" y="-49.2" class="st0" width="52.7" height="85.6"/>
			<g class="st2">
				<path class="st0" d="M744.8-253.4L558.1-253c-41.2,0-82.4-29.5-82.4-92.6c0-63.1,41.2-92.6,82.4-92.6h186.7v55.9H574
					c-35.5,0-43.8,16.6-43.8,36.7c0,19.7,8.3,36.3,43.8,36.3h170.8V-253.4z"/>
				<path class="st0" d="M532.4-223.6c9.1,39.7,40.4,59.7,81.3,59.7c40.8,0,72.2-20,79-59.7h52.2c0,40.8-23.8,72.6-60.1,87.3
					c36.3,15.5,60.1,47.2,60.1,88.1h-52.2c-6.8-39.7-38.2-59.7-79-59.7c-40.8,0-72.2,20-81.3,59.7h-52.2c0-39.7,26.1-74.5,63.5-87.3
					v-0.8c-37.4-12.9-63.5-47.6-63.5-87.3H532.4z"/>
			</g>
		</g>
		<rect id="box-yellow" x="634" y="2645.8" class="st3" width="763.5" height="954.2"/>
		<rect id="box-blue" x="2435.1" y="0.4" class="st1" width="755.7" height="531.2"/>
		<rect id="box-red" x="2206.1" y="1316.9" class="st4" width="984.6" height="2283.1"/>
		<rect id="Rectangle-path_2_" x="1807.3" y="0.4" class="st3" width="101.6" height="3599.6"/>
		<rect id="Rectangle-path_3_" x="1616.4" y="1604.3" width="52.7" height="1995.7"/>
		<rect id="Rectangle-path_4_" x="1803.7" y="1125.7" class="st0" width="107.2" height="114.3"/>
		<rect id="Rectangle-path_5_" x="1721.3" y="1154.8" width="1472.8" height="55.9"/>
		<rect id="Rectangle-path_6_" x="1680.1" y="2202.8" class="st0" width="1510.6" height="179"/>
		<g class="st2">
			<path d="M1750,2253.3v55.9c0,16.4-8.6,26.7-28.5,26.7h-5.8v-10.4h5.5c11.9,0,17.7-5.2,17.7-15.6v-56.6H1750z"/>
			<path d="M1759.8,2335.8v-52.4c0-19.6,12.1-31.6,28.2-31.6s28.2,12,28.2,31.6v52.4h-11.1v-37.5h-29.7V2288h29.7v-5.2
				c0-13-7-20.5-17.1-20.5s-17.1,7.5-17.1,20.5v53.1H1759.8z"/>
			<path d="M1820.8,2335.8l9.6-75.2c0.7-5.7,4.8-8.7,9.2-8.7c4.8,0,7.9,1.8,10.3,9.7l16.7,55.5h0.2l16.7-55.5
				c2.4-7.9,5.4-9.7,10.3-9.7c4.4,0,8.5,3.1,9.2,8.7l9.6,75.2H1901l-7.9-67h-0.2l-17.7,57.5c-2.5,8.1-4.4,9.4-8.4,9.4h-0.2
				c-4,0-5.9-1.3-8.4-9.4l-17.7-57.5h-0.2l-7.9,67H1820.8z"/>
			<path d="M1966.6,2298.3h-39.9c0.9,15.6,14.7,27.1,29.1,27.1h10.7v10.4h-8.7c-24.8,0-42.7-17.9-42.7-41.3
				c0-23.3,17.9-41.3,42.7-41.3h8.7v10.4h-7.4c-21.6,0-32,16-32.4,24.3h39.9V2298.3z"/>
			<path d="M1974.3,2325.5h28.3c9.8,0,13.8-3.5,13.8-10.7c0-16.9-41.5-16.2-41.5-40.7c0-13.4,9.7-20.8,22.6-20.8h26.3v10.4H1996
				c-6.1,0-10,3.4-10,9.8c0,15.2,41.5,15.2,41.5,40.3c0,13.2-8.3,22.1-22.9,22.1h-30.3V2325.5z"/>
			<path d="M2063.2,2335.8l9.6-75.2c0.7-5.7,4.8-8.7,9.2-8.7c4.8,0,7.9,1.8,10.3,9.7l16.7,55.5h0.2l16.7-55.5
				c2.4-7.9,5.4-9.7,10.3-9.7c4.4,0,8.5,3.1,9.2,8.7l9.6,75.2h-11.6l-7.9-67h-0.2l-17.7,57.5c-2.5,8.1-4.4,9.4-8.4,9.4h-0.2
				c-4,0-5.9-1.3-8.4-9.4l-17.7-57.5h-0.2l-7.9,67H2063.2z"/>
			<path d="M2211,2263.7h-7.5c-18.9,0-32.8,13.2-32.8,30.9c0,21.5,16.4,30.9,28.5,30.9h11.8v10.4h-11.8c-23,0-40.1-17.7-40.1-41.3
				c0-20,16.4-41.3,43.2-41.3h8.7V2263.7z"/>
			<path d="M2220.9,2335.8v-82.5h20.9c23.3,0,40.4,19.1,40.4,41.3c0,22.2-17.1,41.3-40.4,41.3h-5.1v-10.4h6
				c15.4,0,27.9-13.4,27.9-30.9c0-18.2-13.3-30.9-32-30.9h-6.7v72.2H2220.9z"/>
			<path d="M2331.8,2251.9c23.3,0,43.2,18.9,43.2,42.7c0,23.8-19.8,42.7-43.2,42.7c-23.3,0-43.2-18.9-43.2-42.7
				C2288.7,2270.7,2308.5,2251.9,2331.8,2251.9z M2331.8,2326.9c18.3,0,31.6-14.7,31.6-32.3c0-17.6-13.3-32.3-31.6-32.3
				c-18.3,0-31.6,14.7-31.6,32.3C2300.2,2312.1,2313.6,2326.9,2331.8,2326.9z"/>
			<path d="M2383.5,2253.3h11.1v57.8c0,9.3,5,15.8,15,15.8s15-6.5,15-15.8v-57.8h11.1v57.8c0,9.3,5,15.8,15,15.8s15-6.5,15-15.8
				v-57.8h11.1v57.8c0,16.6-12,26.2-24.4,26.2c-9.4,0-16.6-2.5-22.2-10.7c-5.5,8.3-12.7,10.7-22.2,10.7c-12.4,0-24.4-9.6-24.4-26.2
				V2253.3z"/>
			<path d="M2536.7,2298.3h-39.9c0.9,15.6,14.7,27.1,29.1,27.1h10.7v10.4h-8.7c-24.8,0-42.7-17.9-42.7-41.3
				c0-23.3,17.9-41.3,42.7-41.3h8.7v10.4h-7.4c-21.6,0-32,16-32.4,24.3h39.9V2298.3z"/>
			<path d="M2560.1,2253.3v53.2c0,12.7,5.2,19,16.7,19h10.7v10.4h-12.4c-15.9,0-26.2-11.1-26.2-26.7v-55.9H2560.1z"/>
			<path d="M2606,2253.3v53.2c0,12.7,5.2,19,16.7,19h10.7v10.4h-12.4c-15.9,0-26.2-11.1-26.2-26.7v-55.9H2606z"/>
		</g>
		<g class="st2">
			<path d="M1191.5,1715v-42.1c0-14.3,8.6-22.8,21.1-22.8c11.7,0,19.7,8.3,19.7,18.1c0,6.1-2.1,11-7.4,14.2
				c5.5,2.2,8.5,5.5,8.5,14.8v17.8h-8.6v-17.5c0-6.3-3.6-10.4-11.6-10.4h-9.5v-8h6.7c7.6,0,13.2-3.5,13.2-10.6
				c0-6.3-5.3-10.4-11.1-10.4c-7.4,0-12.6,4.9-12.6,12.3v44.5H1191.5z"/>
			<path d="M1279.4,1686.1h-30.8c0.7,12,11.4,20.9,22.5,20.9h8.3v8h-6.7c-19.1,0-33-13.8-33-31.9s13.8-31.9,33-31.9h6.7v8h-5.7
				c-16.7,0-24.7,12.4-25,18.8h30.8V1686.1z"/>
			<path d="M1285.3,1707h21.9c7.6,0,10.7-2.7,10.7-8.3c0-13-32-12.5-32-31.4c0-10.4,7.5-16,17.5-16h20.3v8h-21.5
				c-4.7,0-7.7,2.6-7.7,7.6c0,11.7,32,11.7,32,31.1c0,10.2-6.4,17-17.7,17h-23.4V1707z"/>
			<path d="M1370.5,1686.1h-30.8c0.7,12,11.4,20.9,22.5,20.9h8.3v8h-6.7c-19.1,0-33-13.8-33-31.9s13.8-31.9,33-31.9h6.7v8h-5.7
				c-16.7,0-24.7,12.4-25,18.8h30.8V1686.1z"/>
			<path d="M1377.7,1715v-40.4c0-15.1,9.4-24.4,21.8-24.4c12.4,0,21.8,9.3,21.8,24.4v40.4h-8.6v-29h-22.9v-8h22.9v-4
				c0-10-5.4-15.8-13.2-15.8c-7.8,0-13.2,5.8-13.2,15.8v41H1377.7z"/>
			<path d="M1429.4,1715v-42.1c0-14.3,8.6-22.8,21.1-22.8c11.7,0,19.7,8.3,19.7,18.1c0,6.1-2.1,11-7.4,14.2
				c5.5,2.2,8.5,5.5,8.5,14.8v17.8h-8.6v-17.5c0-6.3-3.6-10.4-11.6-10.4h-9.5v-8h6.7c7.6,0,13.2-3.5,13.2-10.6
				c0-6.3-5.3-10.4-11.1-10.4c-7.4,0-12.6,4.9-12.6,12.3v44.5H1429.4z"/>
			<path d="M1518.7,1659.3h-5.8c-14.6,0-25.3,10.2-25.3,23.9c0,16.6,12.7,23.9,22,23.9h9.1v8h-9.1c-17.8,0-31-13.7-31-31.9
				c0-15.5,12.7-31.9,33.3-31.9h6.7V1659.3z"/>
			<path d="M1526.3,1715v-63.7h8.6v26.8h27.7v-26.8h8.6v63.7h-8.6v-29h-27.7v29H1526.3z"/>
		</g>
		<g class="st2">
			<path d="M1277.3,1809.3v-63.7h16.1c18,0,31.2,14.8,31.2,31.9s-13.2,31.9-31.2,31.9h-3.9v-8h4.6c11.9,0,21.6-10.4,21.6-23.9
				c0-14-10.3-23.9-24.7-23.9h-5.2v55.7H1277.3z"/>
			<path d="M1369.3,1780.3h-30.8c0.7,12,11.4,20.9,22.5,20.9h8.3v8h-6.7c-19.1,0-33-13.8-33-31.9s13.8-31.9,33-31.9h6.7v8h-5.7
				c-16.7,0-24.7,12.4-25,18.8h30.8V1780.3z"/>
			<path d="M1375.3,1801.3h21.9c7.6,0,10.7-2.7,10.7-8.3c0-13-32-12.5-32-31.4c0-10.4,7.5-16,17.5-16h20.3v8H1392
				c-4.7,0-7.7,2.6-7.7,7.6c0,11.7,32,11.7,32,31.1c0,10.2-6.4,17-17.7,17h-23.4V1801.3z"/>
			<path d="M1424.4,1809.3v-63.7h8.6v63.7H1424.4z"/>
			<path d="M1494.8,1762.1c-7-5.8-11.7-9.7-20.6-9.7c-14.1,0-24.4,11.4-24.4,24.9s10.3,24.9,24.4,24.9c12.1,0,22.8-7.9,23.4-20.9
				h-22.2v-8h31.1v5.5c0,20.7-17.1,31.5-32.3,31.5c-18,0-33.3-14.6-33.3-33s15.3-33,33.3-33c10.7,0,17.8,3,26.3,11.5L1494.8,1762.1z
				"/>
			<path d="M1514.2,1809.3v-56.5c0-5.6,3.3-7.8,7.5-7.8c4.9,0,6.6,2.9,9.7,9.4l20.5,42.3h0.2v-51.2h8.6v58.2c0,3.5-2.1,6.1-6.6,6.1
				c-4.1,0-6.1-1.3-8.5-6.2l-22.7-46.6h-0.2v52.3H1514.2z"/>
		</g>
		<rect id="Rectangle-path_7_" x="634" y="2999.5" class="st0" width="2562.4" height="107.2"/>
		<rect id="Rectangle-path_8_" x="634" y="3027.4" width="2562.4" height="52.7"/>
	</g>
</g>
</svg>
